{"accessors":[{"bufferView":2,"componentType":5126,"count":65532,"max":[0.015391036868095398,0.017714330926537514,0.01606651395559311],"min":[-0.017714330926537514,-0.01744518056511879,-0.01596991904079914],"type":"VEC3"},{"bufferView":2,"byteOffset":786384,"componentType":5126,"count":65532,"max":[0.948365330696106,0.8730774521827698,0.9886448979377747],"min":[-0.9997180700302124,-0.996575653553009,-0.9886448979377747],"type":"VEC3"},{"bufferView":1,"componentType":5126,"count":65532,"max":[0.806719183921814,0.8411425948143005],"min":[0.0017057375516742468,0.0006791293271817267],"type":"VEC2"},{"bufferView":0,"componentType":5125,"count":377589,"type":"SCALAR"},{"bufferView":2,"byteOffset":1572768,"componentType":5126,"count":65532,"max":[0.017714330926537514,0.017670324072241783,0.016076475381851196],"min":[-0.01744518056511879,-0.015391035936772823,-0.016076475381851196],"type":"VEC3"},{"bufferView":2,"byteOffset":2359152,"componentType":5126,"count":65532,"max":[0.996575653553009,0.9997180700302124,0.9886448979377747],"min":[-0.9350553154945374,-0.9959552884101868,-0.9886448979377747],"type":"VEC3"},{"bufferView":1,"byteOffset":524256,"componentType":5126,"count":65532,"max":[0.47602543234825134,0.8532683849334717],"min":[0.001997432904317975,0.23707595467567444],"type":"VEC2"},{"bufferView":0,"byteOffset":1510356,"componentType":5125,"count":379119,"type":"SCALAR"},{"bufferView":2,"byteOffset":3145536,"componentType":5126,"count":65532,"max":[0.017714330926537514,0.015391037799417973,0.016076475381851196],"min":[-0.014434531331062317,-0.017714330926537514,-0.016076475381851196],"type":"VEC3"},{"bufferView":2,"byteOffset":3931920,"componentType":5126,"count":65532,"max":[0.9997180700302124,0.9113156199455261,0.9886448979377747],"min":[-0.9959552884101868,-0.996575653553009,-0.9886448979377747],"type":"VEC3"},{"bufferView":1,"byteOffset":1048512,"componentType":5126,"count":65532,"max":[0.850071907043457,0.831120491027832],"min":[0.12112937867641449,0.0006790500483475626],"type":"VEC2"},{"bufferView":0,"byteOffset":3026832,"componentType":5125,"count":375948,"type":"SCALAR"},{"bufferView":2,"byteOffset":4718304,"componentType":5126,"count":65532,"max":[0.015391036868095398,0.01744518056511879,0.01596991717815399],"min":[-0.017714330926537514,-0.017714330926537514,-0.016076475381851196],"type":"VEC3"},{"bufferView":2,"byteOffset":5504688,"componentType":5126,"count":65532,"max":[0.996575653553009,0.9959552884101868,0.9886448979377747],"min":[-0.996575653553009,-0.9997180700302124,-0.9886448979377747],"type":"VEC3"},{"bufferView":1,"byteOffset":1572768,"componentType":5126,"count":65532,"max":[0.850071907043457,0.8532684445381165],"min":[0.0017057438381016254,0.0006790500483475626],"type":"VEC2"},{"bufferView":0,"byteOffset":4530624,"componentType":5125,"count":376362,"type":"SCALAR"},{"bufferView":2,"byteOffset":6291072,"componentType":5126,"count":65532,"max":[0.012767359614372253,0.013216747902333736,0.01718348078429699],"min":[-0.017670324072241783,-0.014339110814034939,-0.01718348078429699],"type":"VEC3"},{"bufferView":2,"byteOffset":7077456,"componentType":5126,"count":65532,"max":[0.9998244047164917,0.9998239278793335,0.9999732971191406],"min":[-0.9998239278793335,-0.9998244047164917,-0.999908447265625],"type":"VEC3"},{"bufferView":1,"byteOffset":2097024,"componentType":5126,"count":65532,"max":[0.8677794933319092,0.8733426928520203],"min":[0.0017897040816023946,0.0006790500483475626],"type":"VEC2"},{"bufferView":0,"byteOffset":6036072,"componentType":5125,"count":375894,"type":"SCALAR"},{"bufferView":2,"byteOffset":7863840,"componentType":5126,"count":65532,"max":[0.013406750746071339,0.011141563765704632,0.014853626489639282],"min":[-0.012525058351457119,-0.015391937457025051,-0.011777780950069427],"type":"VEC3"},{"bufferView":2,"byteOffset":8650224,"componentType":5126,"count":65532,"max":[0.9982278347015381,0.999670147895813,0.954296350479126],"min":[-0.9982291460037231,-0.947192907333374,-0.9999732971191406],"type":"VEC3"},{"bufferView":1,"byteOffset":2621280,"componentType":5126,"count":65532,"max":[0.578769326210022,0.9988487362861633],"min":[0.043053314089775085,0.7089246511459351],"type":"VEC2"},{"bufferView":0,"byteOffset":7539648,"componentType":5125,"count":380286,"type":"SCALAR"},{"bufferView":2,"byteOffset":9436608,"componentType":5126,"count":65532,"max":[0.015391937457025051,0.013406751677393913,0.011777780950069427],"min":[-0.013406751677393913,-0.015298285521566868,-0.01465585082769394],"type":"VEC3"},{"bufferView":2,"byteOffset":10222992,"componentType":5126,"count":65532,"max":[0.8594422936439514,0.999670147895813,0.9987461566925049],"min":[-0.999670147895813,-0.9982291460037231,-0.954296350479126],"type":"VEC3"},{"bufferView":1,"byteOffset":3145536,"componentType":5126,"count":65532,"max":[0.9350643157958984,0.9993210434913635],"min":[0.34974709153175354,0.07205371558666229],"type":"VEC2"},{"bufferView":0,"byteOffset":9060792,"componentType":5125,"count":383223,"type":"SCALAR"},{"bufferView":2,"byteOffset":11009376,"componentType":5126,"count":65532,"max":[0.01777619495987892,0.015391937457025051,0.013620160520076752],"min":[-0.013406754471361637,-0.013406749814748764,-0.01465585082769394],"type":"VEC3"},{"bufferView":2,"byteOffset":11795760,"componentType":5126,"count":65532,"max":[0.9999327659606934,0.8576945662498474,0.9987474679946899],"min":[-0.999670147895813,-0.999670147895813,-0.9542944431304932],"type":"VEC3"},{"bufferView":1,"byteOffset":3669792,"componentType":5126,"count":65532,"max":[0.934245228767395,0.8645328879356384],"min":[0.5958531498908997,0.24569128453731537],"type":"VEC2"},{"bufferView":0,"byteOffset":10593684,"componentType":5125,"count":383370,"type":"SCALAR"},{"bufferView":2,"byteOffset":12582144,"componentType":5126,"count":65532,"max":[0.01777619495987892,0.01777619495987892,0.013620161451399326],"min":[-0.0150227015838027,-0.015416566282510757,-0.017189888283610344],"type":"VEC3"},{"bufferView":2,"byteOffset":13368528,"componentType":5126,"count":65532,"max":[0.9999327659606934,0.9999327659606934,0.9666718244552612],"min":[-0.8463817834854126,-0.9969502687454224,-0.9999918937683105],"type":"VEC3"},{"bufferView":1,"byteOffset":4194048,"componentType":5126,"count":65532,"max":[0.8832475543022156,0.8091748356819153],"min":[0.16679450869560242,0.23707592487335205],"type":"VEC2"},{"bufferView":0,"byteOffset":12127164,"componentType":5125,"count":382464,"type":"SCALAR"},{"bufferView":2,"byteOffset":14154912,"componentType":5126,"count":65532,"max":[0.015416566282510757,0.01777619495987892,0.013620161451399326],"min":[-0.01777619495987892,-0.0150227015838027,-0.017189888283610344],"type":"VEC3"},{"bufferView":2,"byteOffset":14941296,"componentType":5126,"count":65532,"max":[0.9969502687454224,0.9999327659606934,0.9666718244552612],"min":[-0.9999327659606934,-0.8463916182518005,-0.9999918937683105],"type":"VEC3"},{"bufferView":1,"byteOffset":4718304,"componentType":5126,"count":65532,"max":[0.9424620270729065,0.803296685218811],"min":[0.5945475697517395,0.0031376967672258615],"type":"VEC2"},{"bufferView":0,"byteOffset":13657020,"componentType":5125,"count":382524,"type":"SCALAR"},{"bufferView":2,"byteOffset":15727680,"componentType":5126,"count":65532,"max":[0.012358119711279869,0.015416566282510757,0.01459877286106348],"min":[-0.01777619495987892,-0.015416566282510757,-0.017189888283610344],"type":"VEC3"},{"bufferView":2,"byteOffset":16514064,"componentType":5126,"count":65532,"max":[0.7914789915084839,0.9969502687454224,0.9666718244552612],"min":[-0.9999327659606934,-0.9969485998153687,-0.9999918937683105],"type":"VEC3"},{"bufferView":1,"byteOffset":5242560,"componentType":5126,"count":65532,"max":[0.9415222406387329,0.9107835292816162],"min":[0.6575871706008911,0.12250775843858719],"type":"VEC2"},{"bufferView":0,"byteOffset":15187116,"componentType":5125,"count":384861,"type":"SCALAR"},{"bufferView":2,"byteOffset":17300448,"componentType":5126,"count":65532,"max":[0.01505341473966837,0.012783492915332317,0.017189888283610344],"min":[-0.015416566282510757,-0.01777619495987892,-0.013620161451399326],"type":"VEC3"},{"bufferView":2,"byteOffset":18086832,"componentType":5126,"count":65532,"max":[0.9923985004425049,0.9959552884101868,0.9999918937683105],"min":[-0.9969502687454224,-0.999933123588562,-0.9666718244552612],"type":"VEC3"},{"bufferView":1,"byteOffset":5766816,"componentType":5126,"count":65532,"max":[0.8259127736091614,0.9107834696769714],"min":[0.6607800722122192,0.003137691877782345],"type":"VEC2"},{"bufferView":0,"byteOffset":16726560,"componentType":5125,"count":383316,"type":"SCALAR"},{"bufferView":2,"byteOffset":18873216,"componentType":5126,"count":65532,"max":[0.015416566282510757,0.013106298632919788,0.017189888283610344],"min":[-0.015391937457025051,-0.017657645046710968,-0.017189888283610344],"type":"VEC3"},{"bufferView":2,"byteOffset":19659600,"componentType":5126,"count":65532,"max":[0.9969501495361328,0.9982291460037231,0.9999918937683105],"min":[-0.8133479356765747,-0.9959552884101868,-0.9999918937683105],"type":"VEC3"},{"bufferView":1,"byteOffset":6291072,"componentType":5126,"count":65532,"max":[0.9859412908554077,0.8919848203659058],"min":[0.10056199878454208,0.03473687171936035],"type":"VEC2"},{"bufferView":0,"byteOffset":18259824,"componentType":5125,"count":381180,"type":"SCALAR"},{"bufferView":2,"byteOffset":20445984,"componentType":5126,"count":65532,"max":[0.013406750746071339,0.015391937457025051,0.01465585082769394],"min":[-0.015391937457025051,-0.013406750746071339,-0.011777780950069427],"type":"VEC3"},{"bufferView":2,"byteOffset":21232368,"componentType":5126,"count":65532,"max":[0.999670147895813,0.9915198683738708,0.954296350479126],"min":[-0.9982291460037231,-0.999670147895813,-0.9987461566925049],"type":"VEC3"},{"bufferView":1,"byteOffset":6815328,"componentType":5126,"count":65532,"max":[0.993338942527771,0.9993210434913635],"min":[0.2339419573545456,0.23707592487335205],"type":"VEC2"},{"bufferView":0,"byteOffset":19784544,"componentType":5125,"count":383787,"type":"SCALAR"},{"bufferView":2,"byteOffset":22018752,"componentType":5126,"count":13357,"max":[0.006907008588314056,0.005776607897132635,0.01421746239066124],"min":[-0.009365064091980457,-0.009365063160657883,-0.014792298898100853],"type":"VEC3"},{"bufferView":2,"byteOffset":22179036,"componentType":5126,"count":13357,"max":[0.947192907333374,0.8065108060836792,0.9987474679946899],"min":[-0.8065108060836792,-0.947187602519989,-0.9972416162490845],"type":"VEC3"},{"bufferView":1,"byteOffset":7339584,"componentType":5126,"count":13357,"max":[0.7831631898880005,0.7659007906913757],"min":[0.24177870154380798,0.0012221239740028977],"type":"VEC2"},{"bufferView":0,"byteOffset":21319692,"componentType":5125,"count":76797,"type":"SCALAR"}],"asset":{"extras":{"author":"sc8di (https://sketchfab.com/sc8di)","license":"CC-BY-4.0 (http://creativecommons.org/licenses/by/4.0/)","source":"https://sketchfab.com/3d-models/abstract-geometric-sphere-8d81b384b5cc4f46a1779d0a2f5f7e27","title":"Abstract Geometric Sphere"},"generator":"Sketchfab-10.65.0","version":"2.0"},"bufferViews":[{"buffer":0,"byteLength":21626880,"name":"floatBufferViews","target":34963},{"buffer":0,"byteLength":7446440,"byteOffset":21626880,"byteStride":8,"name":"floatBufferViews","target":34962},{"buffer":0,"byteLength":22339320,"byteOffset":29073320,"byteStride":12,"name":"floatBufferViews","target":34962}],"buffers":[{"byteLength":51412640,"uri":"d39d7e0e49a7b9d688babd71568e1020.bin"}],"materials":[{"doubleSided":true,"name":"Cube_Material.001_0","pbrMetallicRoughness":{"baseColorFactor":[0.8,0.8,0.8,1],"roughnessFactor":0.29355836054210827}}],"meshes":[{"name":"Cube_Material.001_0","primitives":[{"attributes":{"NORMAL":1,"POSITION":0,"TEXCOORD_0":2},"indices":3,"material":0,"mode":4}]},{"name":"Cube_Material.001_0","primitives":[{"attributes":{"NORMAL":5,"POSITION":4,"TEXCOORD_0":6},"indices":7,"material":0,"mode":4}]},{"name":"Cube_Material.001_0","primitives":[{"attributes":{"NORMAL":9,"POSITION":8,"TEXCOORD_0":10},"indices":11,"material":0,"mode":4}]},{"name":"Cube_Material.001_0","primitives":[{"attributes":{"NORMAL":13,"POSITION":12,"TEXCOORD_0":14},"indices":15,"material":0,"mode":4}]},{"name":"Cube_Material.001_0","primitives":[{"attributes":{"NORMAL":17,"POSITION":16,"TEXCOORD_0":18},"indices":19,"material":0,"mode":4}]},{"name":"Cube_Material.001_0","primitives":[{"attributes":{"NORMAL":21,"POSITION":20,"TEXCOORD_0":22},"indices":23,"material":0,"mode":4}]},{"name":"Cube_Material.001_0","primitives":[{"attributes":{"NORMAL":25,"POSITION":24,"TEXCOORD_0":26},"indices":27,"material":0,"mode":4}]},{"name":"Cube_Material.001_0","primitives":[{"attributes":{"NORMAL":29,"POSITION":28,"TEXCOORD_0":30},"indices":31,"material":0,"mode":4}]},{"name":"Cube_Material.001_0","primitives":[{"attributes":{"NORMAL":33,"POSITION":32,"TEXCOORD_0":34},"indices":35,"material":0,"mode":4}]},{"name":"Cube_Material.001_0","primitives":[{"attributes":{"NORMAL":37,"POSITION":36,"TEXCOORD_0":38},"indices":39,"material":0,"mode":4}]},{"name":"Cube_Material.001_0","primitives":[{"attributes":{"NORMAL":41,"POSITION":40,"TEXCOORD_0":42},"indices":43,"material":0,"mode":4}]},{"name":"Cube_Material.001_0","primitives":[{"attributes":{"NORMAL":45,"POSITION":44,"TEXCOORD_0":46},"indices":47,"material":0,"mode":4}]},{"name":"Cube_Material.001_0","primitives":[{"attributes":{"NORMAL":49,"POSITION":48,"TEXCOORD_0":50},"indices":51,"material":0,"mode":4}]},{"name":"Cube_Material.001_0","primitives":[{"attributes":{"NORMAL":53,"POSITION":52,"TEXCOORD_0":54},"indices":55,"material":0,"mode":4}]},{"name":"Cube_Material.001_0","primitives":[{"attributes":{"NORMAL":57,"POSITION":56,"TEXCOORD_0":58},"indices":59,"material":0,"mode":4}]}],"nodes":[{"children":[1],"matrix":[1,0,0,0,0,2.220446049250313e-16,-1,0,0,1,2.220446049250313e-16,0,0,0,0,1],"name":"Sketchfab_model"},{"children":[2],"matrix":[1,0,0,0,0,0,1,0,0,-1,0,0,0,0,0,1],"name":"4f6ac1f2f5994758ada17e84aa8ee60e.gltf"},{"children":[3],"name":"RootNode"},{"children":[4,5,6,7,8,9,10,11,12,13,14,15,16,17,18],"matrix":[100,0,0,0,0,-0.00001629206793918314,-99.99999999999868,0,0,99.99999999999868,-0.00001629206793918314,0,0,0,0,1],"name":"Cube"},{"mesh":0,"name":"Cube_Material.001_0"},{"mesh":1,"name":"Cube_Material.001_0"},{"mesh":2,"name":"Cube_Material.001_0"},{"mesh":3,"name":"Cube_Material.001_0"},{"mesh":4,"name":"Cube_Material.001_0"},{"mesh":5,"name":"Cube_Material.001_0"},{"mesh":6,"name":"Cube_Material.001_0"},{"mesh":7,"name":"Cube_Material.001_0"},{"mesh":8,"name":"Cube_Material.001_0"},{"mesh":9,"name":"Cube_Material.001_0"},{"mesh":10,"name":"Cube_Material.001_0"},{"mesh":11,"name":"Cube_Material.001_0"},{"mesh":12,"name":"Cube_Material.001_0"},{"mesh":13,"name":"Cube_Material.001_0"},{"mesh":14,"name":"Cube_Material.001_0"}],"scene":0,"scenes":[{"name":"Sketchfab_Scene","nodes":[0]}]}