{"accessors":[{"bufferView":2,"componentType":5126,"count":32267,"max":[20.027620315551758,21.410890579223633,19.30820083618164],"min":[-19.256629943847656,-15.056940078735352,-14.540760040283203],"type":"VEC3"},{"bufferView":2,"byteOffset":387204,"componentType":5126,"count":32267,"max":[0.9999159574508667,0.9996429681777954,0.9994334578514099],"min":[-0.9997113347053528,-0.9996823072433472,-0.9993314146995544],"type":"VEC3"},{"bufferView":3,"componentType":5126,"count":32267,"max":[0.9999872446060181,0.9999929070472717,0.9999175667762756,1],"min":[-0.9998955726623535,-0.9997085928916931,-0.9998739957809448,-1],"type":"VEC4"},{"bufferView":1,"componentType":5126,"count":32267,"max":[0.9957399964332581,0.9996500015258789],"min":[0.00039000000106170774,0.003909999970346689],"type":"VEC2"},{"bufferView":0,"componentType":5125,"count":149994,"max":[32266],"min":[0],"type":"SCALAR"}],"asset":{"extras":{"author":"misterdevious (https://sketchfab.com/misterdevious)","license":"CC-BY-NC-SA-4.0 (http://creativecommons.org/licenses/by-nc-sa/4.0/)","source":"https://sketchfab.com/models/0eb1f1757349489eab05a0f03cff5b46","title":"Frank"},"generator":"Sketchfab-3.18.7","version":"2.0"},"bufferViews":[{"buffer":0,"byteLength":599976,"byteOffset":0,"name":"floatBufferViews","target":34963},{"buffer":0,"byteLength":258136,"byteOffset":599976,"byteStride":8,"name":"floatBufferViews","target":34962},{"buffer":0,"byteLength":774408,"byteOffset":858112,"byteStride":12,"name":"floatBufferViews","target":34962},{"buffer":0,"byteLength":516272,"byteOffset":1632520,"byteStride":16,"name":"floatBufferViews","target":34962}],"buffers":[{"byteLength":2148792,"uri":"54e22ba70b667ad208a8eebb7a79d6e0.bin"}],"images":[{"uri":"965e214c7dde2846123e2e82dd7f92f9.jpeg"}],"materials":[{"doubleSided":true,"name":"Franks.C352.SC130k.DC32270k.M2064k","pbrMetallicRoughness":{"baseColorFactor":[1,1,1,1],"baseColorTexture":{"index":0,"texCoord":0},"metallicFactor":0,"roughnessFactor":0.6}}],"meshes":[{"name":"Franks.C352.SC130k.DC32270k.M2064k_0","primitives":[{"attributes":{"NORMAL":1,"POSITION":0,"TANGENT":2,"TEXCOORD_0":3},"indices":4,"material":0,"mode":4}]}],"nodes":[{"children":[1],"name":"RootNode (gltf orientation matrix)","rotation":[-0.7071067811865475,0,0,0.7071067811865476]},{"children":[2],"name":"RootNode (model correction matrix)"},{"children":[3,5],"name":"Root"},{"children":[4],"matrix":[-0.29086000000000006,0.60756,0.7391000000000001,0,-0.7711,-0.6061700000000001,0.19483000000000003,0,0.5663900000000001,-0.51325,0.6448000000000002,0,4.076250000000001,-3.9639100000000003,5.903860000000001,1],"name":"Lamp"},{"name":"Lamp"},{"children":[6],"matrix":[0.11606000000000002,0.14545000000000002,-0.023110000000000006,0,0.09848000000000003,-0.09853000000000003,-0.12552,0,-0.10951000000000001,0.06555000000000001,-0.13737,0,0,0,0,1],"name":"Franks.C352.SC130k.DC32270k.M2064k"},{"mesh":0,"name":"Franks.C352.SC130k.DC32270k.M2064k_0"}],"samplers":[{"magFilter":9729,"minFilter":9987,"wrapS":10497,"wrapT":10497}],"scene":0,"scenes":[{"name":"OSG_Scene","nodes":[0]}],"textures":[{"sampler":0,"source":0}]}