<?xml version="1.0" standalone="no"?>
<svg xmlns="http://www.w3.org/2000/svg" viewBox="0 0 206.856 36" width="206.856" height="36"><g fill="#fea701" color="#fea701" transform="translate(178.856, 7.499859999999998) scale(0.2800001)"><svg width="100.0" height="75.001" x="0.0" y="0.0" viewBox="0 0 100 75.001"><path fill="currentColor" d="M95.833,54.169h-8.332c-2.3,0-4.168-1.868-4.168-4.167c0-2.304,1.868-4.168,4.168-4.168h8.332  c2.301,0,4.167,1.864,4.167,4.168C100,52.301,98.139,54.169,95.833,54.169z"></path><path fill="currentColor" d="M79.463,26.43c-1.628,1.627-4.267,1.627-5.893,0c-1.623-1.626-1.623-4.265,0-5.893l5.893-5.892  c1.626-1.625,4.266-1.625,5.893,0c1.626,1.627,1.626,4.265,0,5.892L79.463,26.43z"></path><path fill="currentColor" d="M73.548,58.333H64.42c1.423-2.45,2.247-5.291,2.247-8.33c0-9.206-7.462-16.669-16.667-16.669  c-9.203,0-16.667,7.463-16.667,16.669c0,3.039,0.825,5.88,2.248,8.33h-9.128c-0.926-2.608-1.455-5.404-1.455-8.33  c0-13.808,11.195-25.001,25.001-25.001c13.808,0,25.001,11.191,25.001,25.001C75.001,52.928,74.472,55.724,73.548,58.333z"></path><path fill="currentColor" d="M50,16.667c-2.3,0-4.165-1.867-4.165-4.167V4.167C45.835,1.867,47.7,0,50,0c2.299,0,4.167,1.867,4.167,4.167  V12.5C54.167,14.802,52.299,16.667,50,16.667z"></path><path fill="currentColor" d="M20.538,26.43l-5.892-5.893c-1.627-1.626-1.627-4.265,0-5.892c1.625-1.625,4.265-1.625,5.892,0l5.893,5.892  c1.625,1.628,1.625,4.266,0,5.893C24.804,28.057,22.166,28.057,20.538,26.43z"></path><path fill="currentColor" d="M16.667,50.002c0,2.299-1.867,4.167-4.165,4.167H4.167c-2.3,0-4.167-1.868-4.167-4.167  c0-2.304,1.867-4.168,4.167-4.168h8.334C14.8,45.834,16.667,47.699,16.667,50.002z"></path><path fill="currentColor" d="M29.166,66.667h41.668c2.301,0,4.167,1.868,4.167,4.167c0,2.304-1.866,4.168-4.167,4.168H29.166  c-2.3,0-4.167-1.864-4.167-4.168C24.999,68.535,26.866,66.667,29.166,66.667z"></path></svg></g><path fill="#fe4e01" fill-rule="nonzero" d="M5.62 18.67Q2.52 18.67 1.26 15.86Q0 13.06 0 8.95L0 8.95Q0 6.74 0.58 4.70Q1.15 2.66 2.44 1.33Q3.72 0 5.69 0L5.69 0Q7.20 0 8.34 0.94Q9.48 1.87 10.09 3.37Q10.70 4.87 10.70 6.50L10.70 6.50L7.30 6.67Q7.30 5.59 6.94 4.21Q6.58 2.83 5.50 2.83L5.50 2.83Q4.37 2.83 3.94 4.63Q3.50 6.43 3.50 8.95L3.50 8.95Q3.50 12.07 3.98 13.96Q4.46 15.84 5.83 15.84L5.83 15.84Q6.79 15.84 7.20 14.70Q7.61 13.56 7.73 11.93L7.73 11.93L10.73 12.22Q10.73 13.94 10.15 15.42Q9.58 16.90 8.42 17.78Q7.27 18.67 5.62 18.67L5.62 18.67ZM13.03 18.48L13.03 5.11L16.39 4.82L16.39 7.01Q17.11 5.98 18.18 5.34Q19.25 4.70 20.90 4.70L20.90 4.70L20.90 7.99Q20.04 7.99 18.64 8.29Q17.23 8.59 16.39 9.34L16.39 9.34L16.39 18.19L13.03 18.48ZM27.02 18.65Q24.62 18.65 23.35 16.74Q22.08 14.83 22.08 11.66L22.08 11.66Q22.08 8.45 23.38 6.55Q24.67 4.66 27.14 4.66L27.14 4.66Q29.50 4.66 30.74 6.55Q31.99 8.45 31.99 11.66L31.99 11.66Q31.99 11.86 31.92 11.94Q31.85 12.02 31.85 12.05L31.85 12.05L25.44 12.05Q25.44 13.61 25.85 14.89Q26.26 16.18 27.10 16.18L27.10 16.18Q28.03 16.18 28.49 15.10Q28.94 14.02 28.97 13.97L28.97 13.97L31.51 14.93Q31.01 16.66 29.90 17.65Q28.80 18.65 27.02 18.65L27.02 18.65ZM25.44 10.10L28.68 10.10Q28.68 8.66 28.30 7.82Q27.91 6.98 27.10 6.98L27.10 6.98Q26.69 6.98 26.30 7.39Q25.92 7.80 25.68 8.52Q25.44 9.24 25.44 10.10L25.44 10.10ZM34.03 22.54L34.03 5.11L37.39 4.82L37.39 6.14Q38.18 5.35 38.87 5.00Q39.55 4.66 40.46 4.66L40.46 4.66Q41.71 4.66 42.44 5.35Q43.18 6.05 43.50 7.52Q43.82 9.00 43.82 11.47L43.82 11.47Q43.82 14.86 43.04 16.75Q42.26 18.65 40.06 18.65L40.06 18.65Q39.05 18.65 38.45 18.26Q37.85 17.88 37.39 17.18L37.39 17.18L37.39 21.86L34.03 22.54ZM38.86 16.08Q39.65 16.08 40.04 15.14Q40.44 14.21 40.44 11.62L40.44 11.62Q40.44 9.14 40.04 8.11Q39.65 7.08 38.83 7.08L38.83 7.08Q37.99 7.08 37.39 8.02L37.39 8.02L37.39 15.00Q37.87 16.08 38.86 16.08L38.86 16.08ZM49.06 18.65Q47.74 18.65 46.90 17.72Q46.06 16.80 46.06 15.24L46.06 15.24L46.06 5.11L49.42 4.82L49.42 13.87Q49.42 14.83 49.73 15.25Q50.04 15.67 50.69 15.67L50.69 15.67Q51.19 15.67 51.77 15.42Q52.34 15.17 52.80 14.62L52.80 14.62L52.80 5.11L56.18 4.82L56.18 18.19L52.80 18.48L52.80 16.75Q51.96 17.71 50.96 18.18Q49.97 18.65 49.06 18.65L49.06 18.65ZM63.12 18.65Q61.13 18.65 59.90 17.75Q58.68 16.85 58.32 15.24L58.32 15.24L60.94 14.38Q61.03 14.83 61.30 15.19L61.30 15.19Q61.85 15.98 62.90 15.98L62.90 15.98Q63.50 15.98 64.06 15.72Q64.61 15.46 64.61 14.90L64.61 14.90Q64.61 14.16 63.58 13.75L63.58 13.75L60.74 12.60Q59.62 12.12 59.02 11.16Q58.42 10.20 58.42 8.81L58.42 8.81Q58.42 7.51 59.05 6.58Q59.69 5.64 60.73 5.15Q61.78 4.66 62.98 4.66L62.98 4.66Q64.49 4.66 65.76 5.53Q67.03 6.41 67.46 7.92L67.46 7.92L64.68 8.78Q64.58 8.38 64.34 7.97L64.34 7.97Q63.82 7.15 63 7.15L63 7.15Q62.40 7.15 61.97 7.43Q61.54 7.70 61.54 8.23L61.54 8.23Q61.54 8.86 62.71 9.38L62.71 9.38L65.11 10.37Q66.38 10.97 67.10 11.88Q67.82 12.79 67.82 14.33L67.82 14.33Q67.82 15.72 67.15 16.69Q66.48 17.66 65.40 18.16Q64.32 18.65 63.12 18.65L63.12 18.65ZM74.09 18.65Q72.55 18.65 71.46 17.69Q70.37 16.73 69.82 15.14Q69.26 13.56 69.26 11.71L69.26 11.71Q69.26 9.89 69.80 8.28Q70.34 6.67 71.45 5.66Q72.55 4.66 74.16 4.66L74.16 4.66Q75.38 4.66 76.36 5.27Q77.33 5.88 77.88 6.98Q78.43 8.09 78.48 9.50L78.48 9.50L75.29 9.65Q75.29 9.55 75.20 8.88Q75.12 8.21 74.84 7.78Q74.57 7.34 74.14 7.34L74.14 7.34Q73.18 7.34 72.91 8.65Q72.65 9.96 72.65 11.59L72.65 11.59Q72.65 13.20 72.92 14.51Q73.20 15.82 74.23 15.82L74.23 15.82Q75.53 15.82 75.58 13.27L75.58 13.27L78.41 13.58Q78.10 16.08 77.16 17.36Q76.22 18.65 74.09 18.65L74.09 18.65ZM83.50 18.65Q82.18 18.65 81.34 17.72Q80.50 16.80 80.50 15.24L80.50 15.24L80.50 5.11L83.86 4.82L83.86 13.87Q83.86 14.83 84.17 15.25Q84.48 15.67 85.13 15.67L85.13 15.67Q85.63 15.67 86.21 15.42Q86.78 15.17 87.24 14.62L87.24 14.62L87.24 5.11L90.62 4.82L90.62 18.19L87.24 18.48L87.24 16.75Q86.40 17.71 85.40 18.18Q84.41 18.65 83.50 18.65L83.50 18.65ZM96.91 18.19L93.55 18.48L93.55 0.77L96.91 0.34L96.91 18.19ZM102.05 18.65Q101.18 18.65 100.49 18.11Q99.79 17.57 99.41 16.64Q99.02 15.72 99.02 14.57L99.02 14.57Q99.02 11.95 100.81 10.88Q102.60 9.82 104.98 9.67L104.98 9.67Q104.98 8.38 104.81 7.75Q104.64 7.13 103.99 7.13L103.99 7.13Q103.44 7.13 103.15 7.56Q102.86 7.99 102.79 8.66L102.79 8.66L99.50 8.09Q99.74 6.24 101.02 5.45Q102.29 4.66 103.99 4.66L103.99 4.66Q106.18 4.66 107.27 5.81Q108.36 6.96 108.36 8.81L108.36 8.81L108.36 15.79Q108.36 16.92 108.72 18.19L108.72 18.19L105.43 18.48L105.05 16.82Q104.62 17.59 103.78 18.12Q102.94 18.65 102.05 18.65L102.05 18.65ZM103.61 16.25Q104.02 16.25 104.29 16.06Q104.57 15.86 104.98 15.43L104.98 15.43L104.98 11.69Q103.78 11.69 103.06 12.34Q102.34 12.98 102.34 14.35L102.34 14.35Q102.34 15.26 102.66 15.76Q102.98 16.25 103.61 16.25L103.61 16.25ZM111.14 18.48L111.14 5.11L114.50 4.82L114.50 7.01Q115.22 5.98 116.29 5.34Q117.36 4.70 119.02 4.70L119.02 4.70L119.02 7.99Q118.15 7.99 116.75 8.29Q115.34 8.59 114.50 9.34L114.50 9.34L114.50 18.19L111.14 18.48ZM135 18.65L131.78 10.44L130.42 10.44L130.42 18.19L126.91 18.48L126.91 0.48L131.18 0.34Q134.28 0.34 136.03 1.57Q137.78 2.81 137.78 5.35L137.78 5.35Q137.78 7.03 137.12 8.11Q136.46 9.19 135.22 9.91L135.22 9.91L136.82 13.82L138.46 17.71L135 18.65ZM130.42 7.85L131.62 7.85Q132.86 7.85 133.57 7.33Q134.28 6.82 134.28 5.38L134.28 5.38Q134.28 3.14 132.07 3.14L132.07 3.14L130.42 3.14L130.42 7.85ZM142.46 18.65Q141.60 18.65 140.90 18.11Q140.21 17.57 139.82 16.64Q139.44 15.72 139.44 14.57L139.44 14.57Q139.44 11.95 141.23 10.88Q143.02 9.82 145.39 9.67L145.39 9.67Q145.39 8.38 145.22 7.75Q145.06 7.13 144.41 7.13L144.41 7.13Q143.86 7.13 143.57 7.56Q143.28 7.99 143.21 8.66L143.21 8.66L139.92 8.09Q140.16 6.24 141.43 5.45Q142.70 4.66 144.41 4.66L144.41 4.66Q146.59 4.66 147.68 5.81Q148.78 6.96 148.78 8.81L148.78 8.81L148.78 15.79Q148.78 16.92 149.14 18.19L149.14 18.19L145.85 18.48L145.46 16.82Q145.03 17.59 144.19 18.12Q143.35 18.65 142.46 18.65L142.46 18.65ZM144.02 16.25Q144.43 16.25 144.71 16.06Q144.98 15.86 145.39 15.43L145.39 15.43L145.39 11.69Q144.19 11.69 143.47 12.34Q142.75 12.98 142.75 14.35L142.75 14.35Q142.75 15.26 143.08 15.76Q143.40 16.25 144.02 16.25L144.02 16.25ZM151.87 22.61Q151.30 22.61 150.46 22.46L150.46 22.46L150.46 19.66Q151.34 19.70 151.87 19.70L151.87 19.70Q153.98 19.70 153.98 17.74L153.98 17.74L153.98 17.06L150.12 4.99L153.77 4.82L155.66 13.30L157.46 4.90L160.51 4.87L157.06 18.10Q156.34 20.69 154.96 21.65Q153.58 22.61 151.87 22.61L151.87 22.61ZM166.15 18.65Q164.16 18.65 162.94 17.75Q161.71 16.85 161.35 15.24L161.35 15.24L163.97 14.38Q164.06 14.83 164.33 15.19L164.33 15.19Q164.88 15.98 165.94 15.98L165.94 15.98Q166.54 15.98 167.09 15.72Q167.64 15.46 167.64 14.90L167.64 14.90Q167.64 14.16 166.61 13.75L166.61 13.75L163.78 12.60Q162.65 12.12 162.05 11.16Q161.45 10.20 161.45 8.81L161.45 8.81Q161.45 7.51 162.08 6.58Q162.72 5.64 163.76 5.15Q164.81 4.66 166.01 4.66L166.01 4.66Q167.52 4.66 168.79 5.53Q170.06 6.41 170.50 7.92L170.50 7.92L167.71 8.78Q167.62 8.38 167.38 7.97L167.38 7.97Q166.85 7.15 166.03 7.15L166.03 7.15Q165.43 7.15 165 7.43Q164.57 7.70 164.57 8.23L164.57 8.23Q164.57 8.86 165.74 9.38L165.74 9.38L168.14 10.37Q169.42 10.97 170.14 11.88Q170.86 12.79 170.86 14.33L170.86 14.33Q170.86 15.72 170.18 16.69Q169.51 17.66 168.43 18.16Q167.35 18.65 166.15 18.65L166.15 18.65Z" transform="translate(0, 6.696)"></path></svg>